<?xml version="1.0" encoding="UTF-8" standalone="no"?>
<!-- Created with Inkscape (http://www.inkscape.org/) -->

<svg
   xmlns:osb="http://www.openswatchbook.org/uri/2009/osb"
   xmlns:dc="http://purl.org/dc/elements/1.1/"
   xmlns:cc="http://creativecommons.org/ns#"
   xmlns:rdf="http://www.w3.org/1999/02/22-rdf-syntax-ns#"
   xmlns:svg="http://www.w3.org/2000/svg"
   xmlns="http://www.w3.org/2000/svg"
   xmlns:xlink="http://www.w3.org/1999/xlink"
   xmlns:sodipodi="http://sodipodi.sourceforge.net/DTD/sodipodi-0.dtd"
   xmlns:inkscape="http://www.inkscape.org/namespaces/inkscape"
   inkscape:version="0.92.3 (2405546, 2018-03-11)"
   version="1.1"
   id="svg10"
   width="278"
   height="60"
   viewBox="0 0 278 60"
   sodipodi:docname="wb-logo-neu.svg">
  <metadata
     id="metadata16">
    <rdf:RDF>
      <cc:Work
         rdf:about="">
        <dc:format>image/svg+xml</dc:format>
        <dc:type
           rdf:resource="http://purl.org/dc/dcmitype/StillImage" />
        <dc:title></dc:title>
      </cc:Work>
    </rdf:RDF>
  </metadata>
  <defs
     id="defs14">
    <linearGradient
       id="linearGradient5149"
       osb:paint="solid">
      <stop
         style="stop-color:#000000;stop-opacity:0.03529412;"
         offset="0"
         id="stop5147" />
    </linearGradient>
    <linearGradient
       id="linearGradient5143"
       osb:paint="solid">
      <stop
         style="stop-color:#214478;stop-opacity:1;"
         offset="0"
         id="stop5141" />
    </linearGradient>
    <linearGradient
       inkscape:collect="always"
       xlink:href="#linearGradient5143"
       id="linearGradient5145"
       x1="55.822784"
       y1="24.129951"
       x2="266.29153"
       y2="24.129951"
       gradientUnits="userSpaceOnUse" />
    <linearGradient
       inkscape:collect="always"
       xlink:href="#linearGradient5149"
       id="linearGradient5151"
       x1="55.822784"
       y1="24.129951"
       x2="266.29153"
       y2="24.129951"
       gradientUnits="userSpaceOnUse" />
  </defs>
  <sodipodi:namedview
     pagecolor="#ffffff"
     bordercolor="#666666"
     borderopacity="1"
     objecttolerance="10"
     gridtolerance="10"
     guidetolerance="10"
     inkscape:pageopacity="0"
     inkscape:pageshadow="2"
     inkscape:window-width="1920"
     inkscape:window-height="950"
     id="namedview12"
     showgrid="false"
     inkscape:zoom="6.3309352"
     inkscape:cx="186.09629"
     inkscape:cy="30.019368"
     inkscape:window-x="-9"
     inkscape:window-y="-9"
     inkscape:window-maximized="1"
     inkscape:current-layer="svg10">
    <sodipodi:guide
       position="0,0"
       orientation="0,278"
       id="guide71"
       inkscape:locked="false" />
    <sodipodi:guide
       position="278,0"
       orientation="-72,0"
       id="guide73"
       inkscape:locked="false" />
    <sodipodi:guide
       position="278,72"
       orientation="0,-278"
       id="guide75"
       inkscape:locked="false" />
    <sodipodi:guide
       position="0,72"
       orientation="72,0"
       id="guide77"
       inkscape:locked="false" />
  </sodipodi:namedview>
  <text
     xml:space="preserve"
     style="font-style:normal;font-variant:normal;font-weight:normal;font-stretch:normal;font-size:64px;line-height:1.25;font-family:'Segoe MDL2 Assets';-inkscape-font-specification:'Segoe MDL2 Assets';letter-spacing:0px;word-spacing:0px;fill:url(#linearGradient5145);fill-opacity:1;stroke:url(#linearGradient5151);fill-rule:nonzero"
     x="54.947784"
     y="35.911201"
     id="text90"><tspan
       sodipodi:role="line"
       id="tspan88"
       x="54.947784"
       y="35.911201"
       style="font-style:normal;font-variant:normal;font-weight:600;font-stretch:normal;font-size:32px;font-family:'Century Gothic';-inkscape-font-specification:'Century Gothic Semi-Bold';fill:url(#linearGradient5145);fill-opacity:1;fill-rule:nonzero;stroke:url(#linearGradient5151)">WebsiteBaker</tspan></text>
  <text
     xml:space="preserve"
     style="font-style:normal;font-variant:normal;font-weight:normal;font-stretch:normal;font-size:10.66666667px;line-height:1.25;font-family:sans-serif;-inkscape-font-specification:'sans-serif, Normal';font-variant-ligatures:normal;font-variant-caps:normal;font-variant-numeric:normal;font-feature-settings:normal;text-align:start;letter-spacing:0px;word-spacing:0px;writing-mode:lr;text-anchor:start;fill:#e2e3db;fill-opacity:1;stroke:none;"
     x="57.405643"
     y="49.72897"
     id="text94"><tspan
       sodipodi:role="line"
       id="tspan92"
       x="57.405643"
       y="49.72897"
       style="font-style:normal;font-variant:normal;font-weight:normal;font-stretch:normal;font-size:10.66666667px;font-family:sans-serif;-inkscape-font-specification:'sans-serif, Normal';font-variant-ligatures:normal;font-variant-caps:normal;font-variant-numeric:normal;font-feature-settings:normal;text-align:start;writing-mode:lr;text-anchor:start;fill:#e2e3db;">Open Source Content Management System</tspan></text>
  <path
     style="fill:#edf1f6;stroke-width:0.41004488"
     d="M 23.568695,45.84613 21.013705,45.357776 18.999652,41.46235 C 17.891923,39.319865 14.672225,33.545638 11.844768,28.630734 9.0173095,23.71583 6.5835419,19.146397 6.4363946,18.47644 6.0703681,16.809932 7.496598,13.968544 9.6049972,12.163832 11.724238,10.34984 16.863675,7.6807817 19.76799,6.8858949 22.875299,6.0354507 34.17728,5.2076143 38.689519,5.4999495 c 2.04608,0.1325598 3.793079,0.313951 3.882219,0.4030917 0.08914,0.089141 0.28347,7.7486318 0.431842,17.0210908 0.301747,18.857629 0.374814,18.307035 -2.371178,17.867933 l -1.592304,-0.254619 -0.0063,1.795098 c -0.0034,0.987303 -0.161782,2.040388 -0.35184,2.340187 -0.719596,1.135093 -11.097975,1.940873 -15.113284,1.173399 z"
     id="path68"
     inkscape:connector-curvature="0" />
  <path
     style="fill:#e3ebf5;stroke-width:0.41004488"
     d="M 23.705499,45.825639 C 22.366065,45.56649 21.145931,45.083395 20.970384,44.742709 20.796072,44.404422 20.063918,42.92826 19.343374,41.46235 18.62283,39.996439 15.567383,34.460833 12.55349,29.161002 9.5395975,23.861171 6.9559238,18.932293 6.8119926,18.207939 6.0635543,14.441318 12.70875,9.1438125 20.939273,6.9457647 23.479583,6.2673481 25.793854,6.0685451 33.15282,5.8965833 c 8.637364,-0.2018349 9.088202,-0.1746987 9.261022,0.5574261 0.09992,0.4232741 0.165909,8.2426576 0.146651,17.3764086 l -0.03501,16.606819 -1.716618,-0.07505 -1.716617,-0.07504 -0.274964,2.200744 c -0.320197,2.562767 -0.312709,2.557907 -5.107766,3.315349 -4.129332,0.652283 -6.71845,0.658081 -10.004016,0.0224 z"
     id="path66"
     inkscape:connector-curvature="0" />
  <path
     style="fill:#dee8f4;stroke-width:0.41004488"
     d="M 23.743693,45.825639 21.363701,45.357776 19.594354,41.667372 C 18.621213,39.63765 15.402115,33.74479 12.440803,28.572127 6.7823498,18.688241 6.4108031,17.657717 7.6451219,15.270808 8.6591746,13.309846 11.552809,11.073096 15.423011,9.258578 21.07655,6.6079552 23.914991,6.0851921 33.757262,5.8819111 l 8.453666,-0.1746008 0.304553,16.8896507 c 0.227694,12.627314 0.184418,17.009603 -0.171482,17.364964 -0.261819,0.261422 -1.158434,0.475312 -1.992479,0.475312 -1.514448,0 -1.516607,0.0025 -1.640088,1.915044 -0.068,1.053275 -0.370402,2.119836 -0.671996,2.370136 -0.714936,0.593344 -7.236691,1.656746 -9.865526,1.608619 -1.127624,-0.02064 -3.121221,-0.248072 -4.430217,-0.505397 z m 0.603281,-15.877403 c 0.150432,-2.349939 0.116704,-4.918437 -0.07495,-5.707773 -1.572067,-6.474602 -2.84873,-9.431033 -4.07256,-9.431033 -0.430098,0 -1.144854,-0.461301 -1.588349,-1.025113 -0.544914,-0.692746 -1.211448,-1.025112 -2.055785,-1.025112 -1.568191,0 -1.865984,0.473691 -1.354854,2.155127 0.222408,0.73164 0.579325,2.252856 0.793149,3.38048 0.833941,4.397862 6.524251,16.440304 7.600303,16.08457 0.300521,-0.09935 0.581638,-1.75352 0.753046,-4.431146 z"
     id="path64"
     inkscape:connector-curvature="0" />
  <path
     style="fill:#dae5f2;stroke-width:0.41004488"
     d="M 23.722886,45.867274 C 21.483551,45.484522 21.283127,45.357069 20.742807,43.972193 19.895703,41.801008 18.209523,38.658457 12.323505,28.281058 6.814853,18.568979 6.4570597,17.568267 7.6609149,15.240268 9.1973261,12.269176 15.541681,8.5740688 21.818215,6.9947113 24.60224,6.2941698 27.002568,6.0745757 33.746625,5.9034397 l 8.443029,-0.2142488 0.291333,16.9225671 c 0.160233,9.307412 0.143534,17.067261 -0.03711,17.24411 -0.180644,0.176849 -1.066524,0.380004 -1.968623,0.451456 l -1.640179,0.129913 -0.123644,1.915044 c -0.068,1.053275 -0.370402,2.119836 -0.671996,2.370136 -0.720649,0.598086 -7.25661,1.658545 -9.865526,1.600681 -1.127624,-0.02501 -3.130584,-0.230131 -4.451023,-0.455824 z m 2.257735,-8.976733 C 25.86155,31.05561 25.056894,24.743648 23.903987,20.600809 c -1.523741,-5.47538 -2.02957,-6.556292 -3.742685,-7.997783 -1.439035,-1.210869 -2.65522,-1.339169 -4.678947,-0.493602 -1.782518,0.744784 -2.433457,1.881374 -1.68746,2.946435 0.301742,0.430796 0.735022,1.428055 0.962846,2.216131 0.773997,2.677372 4.65344,12.084249 5.917716,14.349281 3.453599,6.187352 5.36259,8.083427 5.305164,5.26927 z"
     id="path62"
     inkscape:connector-curvature="0" />
  <path
     style="fill:#d8e2ed;stroke-width:0.41004488"
     d="M 23.681527,45.825639 C 21.287688,45.367033 21.226226,45.321268 20.575066,43.512574 20.209699,42.497713 17.99562,38.253748 15.65489,34.081541 13.31416,29.909334 10.421973,24.742791 9.2278084,22.600335 8.0095086,20.414578 7.0566,18.186293 7.0566,17.523173 7.0566,14.93167 9.6651713,12.27368 14.64243,9.7936344 20.640751,6.8048176 25.944599,5.7884415 35.543094,5.7884415 h 6.646693 l 0.287157,16.8770515 c 0.157936,9.282378 0.141207,17.019897 -0.03718,17.194485 -0.178385,0.174588 -1.062415,0.375894 -1.964514,0.447346 l -1.640179,0.129913 -0.123644,1.915044 c -0.068,1.053275 -0.370402,2.119836 -0.671996,2.370136 -0.714936,0.593344 -7.236691,1.656746 -9.865526,1.608619 -1.127624,-0.02064 -3.149195,-0.248072 -4.492383,-0.505397 z m 3.161036,-6.516025 c 0.548956,-0.419581 0.60613,-0.847268 0.315193,-2.357759 -0.195473,-1.014861 -0.657626,-4.243964 -1.027005,-7.175786 -0.895186,-7.105233 -3.853071,-17.541506 -5.414108,-19.102544 -1.075045,-1.0750445 -7.507895,1.356248 -8.172774,3.088895 -0.125677,0.327508 0.321331,1.758057 0.99335,3.178998 1.960716,4.145807 2.788477,6.125924 3.56551,8.52918 0.401047,1.240386 1.269643,3.33591 1.930212,4.656721 1.681911,3.362989 6.009415,9.694851 6.625934,9.694851 0.282199,0 0.814859,-0.23065 1.183688,-0.512556 z"
     id="path60"
     inkscape:connector-curvature="0" />
  <path
     style="fill:#d4e1f0;stroke-width:0.41004488;fill-opacity:0.34765625"
     d="m 24.076895,45.900871 c -2.269411,-0.432748 -3.488815,-1.295747 -3.488815,-2.469113 0,-0.804313 -2.343817,-5.233924 -9.385369,-17.737534 C 8.9223496,21.645012 7.0566,17.991574 7.0566,17.575474 c 0,-3.852603 7.634689,-8.7161903 16.86121,-10.7412324 4.033066,-0.8851794 5.79643,-1.045544 11.481256,-1.0441331 l 6.716369,0.00167 0.157237,17.2555265 0.157237,17.255527 -1.797417,-0.131501 -1.797416,-0.131501 -0.123836,2.143404 c -0.151,2.613582 -0.468434,2.828293 -5.353922,3.62136 -3.972863,0.644918 -6.27785,0.668831 -9.280423,0.09628 z m 2.765668,-6.591257 C 27.391132,38.890328 27.448766,38.461282 27.15928,36.951855 26.964644,35.936994 26.700272,33.815012 26.571786,32.236339 26.4433,30.657666 26.244516,28.904724 26.130043,28.340912 26.015571,27.7771 25.72423,26.208679 25.48262,24.85553 24.947693,21.859646 23.401348,16.691782 22.05138,13.38837 20.946415,10.684489 19.944799,9.6417366 19.114475,10.330845 c -0.283678,0.235431 -0.760117,0.382011 -1.058754,0.325732 -1.711519,-0.322539 -5.668538,2.074351 -5.668538,3.433611 0,0.22747 0.533675,1.543347 1.185944,2.92417 1.929796,4.085288 2.757602,6.068549 3.529602,8.45624 0.401047,1.240386 1.269643,3.33591 1.930212,4.656721 1.681911,3.362989 6.009415,9.694851 6.625934,9.694851 0.282199,0 0.814859,-0.23065 1.183688,-0.512556 z"
     id="path58"
     inkscape:connector-curvature="0" />
  <path
     style="fill:#d1ddec;stroke-width:0.41004488"
     d="m 24.076895,45.900871 c -2.269411,-0.432748 -3.488815,-1.295747 -3.488815,-2.469113 0,-0.804313 -2.343817,-5.233924 -9.385369,-17.737534 C 8.9223496,21.645012 7.0566,17.991574 7.0566,17.575474 c 0,-3.852008 7.557313,-8.6604146 16.86121,-10.7280937 4.059417,-0.9021564 5.759287,-1.058692 11.481256,-1.0572718 l 6.716369,0.00167 0.157237,17.2555265 0.157237,17.255527 -1.797417,-0.131501 -1.797416,-0.131501 -0.123836,2.143404 c -0.151,2.613582 -0.468434,2.828293 -5.353922,3.62136 -3.972863,0.644918 -6.27785,0.668831 -9.280423,0.09628 z m 3.907509,-6.75029 c 0.198959,-0.198959 0.188589,-1.073059 -0.02366,-1.994062 -0.207842,-0.901901 -0.76654,-4.213233 -1.241549,-7.358515 -1.107491,-7.333282 -2.554577,-13.83935 -3.637742,-16.355215 -0.469257,-1.08994 -0.853194,-2.509082 -0.853194,-3.153649 0,-0.6445668 -0.13839,-1.2555745 -0.307533,-1.3577945 -0.169144,-0.1022201 -1.658632,0.1587206 -3.309975,0.579868 -3.214686,0.8198525 -5.823206,2.5145035 -6.811115,4.4249085 -0.688123,1.330683 -0.475012,2.012995 2.706136,8.664161 1.240447,2.593534 2.673163,5.638118 3.183813,6.765741 0.51065,1.127624 2.155924,3.953298 3.656165,6.279277 l 2.727711,4.229053 1.77835,-0.184765 c 0.978093,-0.101621 1.93776,-0.344174 2.132593,-0.539008 z"
     id="path56"
     inkscape:connector-curvature="0" />
  <path
     style="fill:#cbdaeb;stroke-width:0.41004488"
     d="M 23.880631,45.830793 C 22.136784,45.46305 21.531547,45.12963 21.161165,44.332664 20.899139,43.768852 20.090845,42.01591 19.364956,40.437237 18.639068,38.858564 15.664993,33.308204 12.755902,28.103103 9.2336688,21.800936 7.4666449,18.225582 7.4666449,17.400946 c 0,-1.653357 1.9109115,-4.20381 4.0350951,-5.385556 2.023807,-1.125903 2.138253,-0.882402 0.475398,1.011485 -0.676574,0.770575 -1.231531,1.717536 -1.233238,2.104356 -0.0056,1.263811 7.474973,16.17672 10.396952,20.726925 l 2.852432,4.441906 1.416512,-0.265739 c 3.097899,-0.58117 3.31618,-0.785212 2.937482,-2.745872 -0.188215,-0.974464 -0.632228,-3.985995 -0.986693,-6.692292 -0.955336,-7.293847 -2.317908,-13.693452 -4.033533,-18.94432 -0.307688,-0.941714 -0.296156,-1.60351 0.04083,-2.3431153 0.621474,-1.3639874 0.131041,-1.5953214 -2.159409,-1.0185792 -1.035069,0.2606333 -1.978465,0.3773568 -2.096436,0.2593856 -0.117971,-0.1179712 1.780429,-0.7330941 4.218667,-1.3669397 3.949014,-1.0265877 5.239219,-1.1631821 11.813967,-1.2507485 4.059444,-0.054066 7.196287,-0.016376 6.970763,0.083756 -0.270128,0.1199353 -0.304056,4.2747631 -0.09943,12.1762871 0.170838,6.596826 0.263098,14.208472 0.205022,16.914768 l -0.105592,4.920539 h -1.64018 -1.640179 l -0.123836,2.149722 c -0.150968,2.620743 -0.466028,2.834219 -5.353922,3.627677 -4.139671,0.671997 -6.38488,0.678205 -9.476687,0.0262 z"
     id="path54"
     inkscape:connector-curvature="0" />
  <path
     style="fill:#c2d2e3;stroke-width:0.41004488"
     d="M 22.744422,45.710327 C 21.69314,45.477395 20.58808,44.089556 20.58808,43.00219 c 0,-0.405875 -0.717198,-2.16389 -1.593774,-3.9067 C 16.639897,34.414447 8.760926,19.75516 8.0666437,18.763932 7.7366444,18.292793 7.4666449,17.599772 7.4666449,17.223888 c 0,-0.894906 1.6064692,-2.872154 1.6285395,-2.004413 0.0086,0.338287 0.6372232,1.826216 1.3969306,3.30651 0.759708,1.480294 1.51544,3.114119 1.679404,3.630724 0.361486,1.138942 6.879987,12.842143 8.982929,16.127792 0.829981,1.296767 1.734037,2.353545 2.009013,2.348394 0.274975,-0.0052 1.791597,-0.340648 3.370269,-0.745549 l 2.870314,-0.736185 -0.0097,-2.637321 C 29.383955,33.70785 28.363041,26.598856 27.337316,22.190238 26.429688,18.289209 25.475926,7.7346765 25.985032,7.2255707 26.112885,7.0977171 27.203508,6.8763307 28.408637,6.7336009 30.019283,6.5428437 30.387072,6.3909032 29.79689,6.160087 29.3553,5.9873841 31.577282,5.8460817 34.734627,5.8460817 c 3.563905,0 5.429668,0.1336244 4.920539,0.3524047 -0.745221,0.3202322 -0.72416,0.3550358 0.230694,0.3812248 1.002363,0.027492 1.05084,0.1374676 1.052008,2.3865785 6.56e-4,1.2967673 0.308139,6.2326823 0.683258,10.9687013 0.841183,10.620259 0.92786,19.868656 0.186775,19.928723 -0.281906,0.02285 -1.112247,0.0087 -1.845202,-0.03142 -1.328717,-0.07275 -1.332664,-0.06713 -1.338925,1.906169 -0.0075,2.361798 -0.243786,2.801522 -1.847268,3.437612 -1.234541,0.489733 -12.32693,0.912058 -14.032084,0.534248 z"
     id="path50"
     inkscape:connector-curvature="0" />
  <path
     style="fill:#bed0e3;stroke-width:0.41004488"
     d="M 22.744422,45.708385 C 21.63712,45.465381 20.58808,44.073339 20.58808,42.846991 c 0,-0.902413 -4.393211,-10.624938 -5.998856,-13.275944 -0.47808,-0.789337 -2.013687,-3.601174 -3.41246,-6.248528 -1.3987738,-2.647354 -2.7135158,-4.918616 -2.9216494,-5.04725 -0.2081337,-0.128633 -0.3638575,-0.63816 -0.3460529,-1.132281 0.017805,-0.494121 0.1254414,-0.667751 0.2391928,-0.385845 0.1137515,0.281906 0.4682246,0.512556 0.7877176,0.512556 0.3194935,0 0.5808971,0.170363 0.5808971,0.378585 0,0.208221 0.4493185,0.912568 0.9984858,1.565216 0.549167,0.652648 1.126675,1.727797 1.283352,2.389219 0.412468,1.741266 4.34746,9.086003 7.721449,14.412233 2.04476,3.227886 3.149261,4.602965 3.705292,4.613005 0.435691,0.0079 2.254751,-0.380345 4.042354,-0.862692 L 30.51799,38.888269 30.260155,37.407506 C 30.118346,36.593087 29.552349,32.97442 29.002384,29.366024 28.452419,25.757629 27.795838,22.159485 27.543315,21.370148 27.290791,20.580812 27.016343,18.089789 26.93343,15.834542 26.850517,13.579295 26.598124,11.123829 26.372556,10.377952 26.146989,9.6320738 26.052957,8.7859103 26.163596,8.4975878 26.508789,7.5980288 29.132726,6.6114725 31.365669,6.5416954 L 33.504493,6.4748595 31.249246,6.1984864 C 29.431298,5.9757029 29.868597,5.914742 33.504493,5.8840976 c 2.701436,-0.022769 4.181574,0.096767 3.690404,0.2980357 -0.658685,0.2699118 -0.497279,0.365118 0.820089,0.4837361 1.545687,0.1391761 1.646999,0.2303657 1.758558,1.5828416 0.06511,0.7893365 0.484733,3.527229 0.9325,6.084206 0.944269,5.392256 1.887628,20.6895 1.451773,23.54154 -0.296235,1.938427 -0.305251,1.947713 -1.89128,1.947713 h -1.593626 l -0.12394,2.152736 c -0.118623,2.060389 -0.19412,2.186982 -1.759948,2.951066 -1.347063,0.657334 -2.650629,0.814735 -7.380807,0.891212 -3.15964,0.05108 -6.158347,0.0021 -6.663794,-0.108799 z"
     id="path48"
     inkscape:connector-curvature="0" />
  <path
     style="fill:#c1cede;stroke-width:0.41004488"
     d="m 22.744422,45.708385 c -1.083366,-0.237752 -2.156342,-1.627744 -2.156342,-2.793444 0,-0.453862 -0.850235,-2.730167 -1.889411,-5.058456 -1.039176,-2.328289 -1.80417,-4.318493 -1.699986,-4.422677 0.104183,-0.104183 1.353008,1.575197 2.775167,3.731956 1.422158,2.156759 2.786843,3.86631 3.032632,3.799003 0.245789,-0.06731 2.245961,-0.572767 4.444827,-1.123241 4.411084,-1.104291 4.362401,-1.044409 3.407399,-4.191234 -0.319914,-1.054147 -0.887071,-4.00647 -1.26035,-6.560719 -0.373278,-2.554248 -0.93087,-5.751209 -1.239093,-7.104357 -0.35669,-1.565929 -0.530414,-4.513586 -0.477903,-8.108802 l 0.0825,-5.6485335 1.332646,-0.482003 c 0.732955,-0.2651015 1.332646,-0.6294551 1.332646,-0.8096745 0,-0.1802194 0.96873,-0.3602555 2.152735,-0.4000802 2.072971,-0.069726 2.046382,-0.082236 -0.717579,-0.3376364 L 28.994,5.9332586 32.786914,5.86085 c 2.144174,-0.040933 3.792915,0.095074 3.792915,0.312884 0,0.2119108 0.691951,0.4425611 1.537668,0.5125561 1.432969,0.1185984 1.545729,0.2249829 1.656047,1.5624209 0.06511,0.7893365 0.484733,3.527229 0.9325,6.084206 0.944269,5.392256 1.887628,20.6895 1.451773,23.54154 -0.296235,1.938427 -0.305251,1.947713 -1.89128,1.947713 h -1.593626 l -0.12394,2.152736 c -0.118623,2.060389 -0.19412,2.186982 -1.759948,2.951066 -1.347063,0.657334 -2.650629,0.814735 -7.380807,0.891212 -3.15964,0.05108 -6.158347,0.0021 -6.663794,-0.108799 z M 10.488408,21.531349 c -0.152845,-0.426947 -0.352599,-0.914658 -0.443897,-1.083802 -0.091298,-0.169143 0.01698,-0.307533 0.240616,-0.307533 0.472089,0 1.058826,1.589956 0.713991,1.934792 -0.128046,0.128046 -0.357866,-0.11651 -0.51071,-0.543457 z M 7.8829687,17.167188 c 0.00508,-0.746051 0.082342,-0.804901 0.4037659,-0.307534 0.5137542,0.794979 0.5137542,1.230135 0,1.230135 -0.2255247,0 -0.4072194,-0.41517 -0.4037659,-0.922601 z"
     id="path46"
     inkscape:connector-curvature="0" />
  <path
     style="fill:#bccde1;stroke-width:0.41004488"
     d="m 22.975845,45.706758 c -1.420285,-0.249271 -2.016193,-1.001022 -2.152192,-2.715036 -0.0604,-0.761217 -0.977394,-3.191486 -2.037768,-5.400597 -1.060374,-2.209112 -1.853663,-4.090856 -1.762865,-4.181654 0.0908,-0.0908 1.328671,1.599534 2.75083,3.756293 1.422158,2.156759 2.786843,3.86631 3.032632,3.799003 0.245789,-0.06731 2.245961,-0.572767 4.444827,-1.123241 4.411084,-1.104291 4.362401,-1.044409 3.407399,-4.191234 -0.319914,-1.054147 -0.887071,-4.00647 -1.26035,-6.560719 -0.373278,-2.554248 -0.93087,-5.751209 -1.239093,-7.104357 -0.35669,-1.565929 -0.530414,-4.513586 -0.477903,-8.108802 l 0.0825,-5.6485335 1.332646,-0.482003 c 0.732955,-0.2651015 1.332646,-0.6294551 1.332646,-0.8096745 0,-0.1802194 1.670097,-0.3276716 3.711327,-0.3276716 h 3.711326 l 0.549583,1.3326459 c 0.302271,0.7329553 1.025652,4.0081887 1.607514,7.2782977 0.581862,3.270108 1.239699,6.775992 1.46186,7.790853 0.222161,1.014861 0.411966,5.226834 0.421787,9.359939 l 0.01786,7.514736 -1.537668,-0.133928 c -1.492147,-0.129963 -1.540945,-0.09144 -1.648357,1.30123 -0.31861,4.131001 -1.208842,4.594213 -9.11532,4.742955 -3.044583,0.05728 -6.029533,0.01745 -6.633222,-0.0885 z M 10.488408,21.531349 c -0.152845,-0.426947 -0.352599,-0.914658 -0.443897,-1.083802 -0.091298,-0.169143 0.01698,-0.307533 0.240616,-0.307533 0.472089,0 1.058826,1.589956 0.713991,1.934792 -0.128046,0.128046 -0.357866,-0.11651 -0.51071,-0.543457 z M 30.531668,5.8997817 c 0.845717,-0.088465 2.229619,-0.088465 3.075336,0 0.845718,0.088465 0.153767,0.1608451 -1.537668,0.1608451 -1.691435,0 -2.383386,-0.07238 -1.537668,-0.1608451 z"
     id="path44"
     inkscape:connector-curvature="0" />
  <path
     style="fill:#bacadd;stroke-width:0.41004488"
     d="M 22.975845,45.706758 C 21.513492,45.450103 20.979158,44.72511 20.79861,42.752655 20.71596,41.849739 20.450418,40.741167 20.208511,40.28916 c -0.241906,-0.452006 -0.62599,-1.341682 -0.85352,-1.977056 l -0.41369,-1.155226 0.925901,1.038529 c 0.509245,0.571191 1.212756,1.47507 1.563358,2.008621 l 0.637458,0.970092 4.336258,-1.08602 c 2.384941,-0.597311 4.635238,-1.08602 5.000658,-1.08602 0.8304,0 0.829046,-0.04195 -0.106984,-3.315074 -0.424263,-1.483568 -0.985707,-4.066264 -1.247654,-5.739324 -0.261947,-1.67306 -0.769355,-4.762084 -1.127575,-6.864497 -0.437804,-2.569508 -0.558553,-4.720152 -0.368354,-6.560719 0.155624,-1.505982 0.374709,-3.647301 0.486856,-4.758487 0.244633,-2.423897 1.817567,-4.5591786 3.644277,-4.9471597 0.677176,-0.143828 2.125347,-0.2034014 3.218158,-0.1323854 2.545641,0.1654278 2.43183,-0.1166897 4.601126,11.4053551 0.360913,1.91696 0.81679,4.223463 1.013059,5.125562 0.196269,0.902098 0.36489,5.021811 0.374711,9.154916 l 0.01786,7.514736 -1.537668,-0.133928 c -1.492147,-0.129963 -1.540945,-0.09144 -1.648357,1.30123 -0.31861,4.131001 -1.208842,4.594213 -9.11532,4.742955 -3.044583,0.05728 -6.029533,0.01745 -6.633222,-0.0885 z"
     id="path42"
     inkscape:connector-curvature="0" />
  <path
     style="fill:#b3c4da;stroke-width:0.41004488"
     d="m 22.638304,45.437144 c -1.291228,-0.440331 -1.447489,-0.657775 -1.558123,-2.168207 l -0.122965,-1.678794 4.040865,-1.085883 c 2.222476,-0.597235 4.907223,-1.20463 5.966105,-1.349766 1.058882,-0.145136 1.92524,-0.389833 1.92524,-0.54377 0,-0.153938 -0.26076,-1.189848 -0.579466,-2.302024 -0.318706,-1.112175 -0.783505,-3.313778 -1.032888,-4.892451 -0.249383,-1.578673 -0.726115,-4.530996 -1.059404,-6.560719 -0.751727,-4.577988 -0.746431,-7.308355 0.01829,-9.431033 0.324993,-0.902099 0.593674,-2.353839 0.59707,-3.226089 0.005,-1.295199 0.302275,-1.882011 1.621496,-3.2012316 1.601423,-1.6014236 1.626087,-1.6097566 2.866291,-0.9684221 2.023083,1.046177 2.924787,3.3658377 4.150043,10.6761017 0.264597,1.578673 0.867334,3.516136 1.339414,4.305472 0.786311,1.314742 0.859871,2.071638 0.876723,9.020988 l 0.0184,7.585831 -1.484734,-0.128538 -1.484734,-0.128538 -0.190378,2.295704 c -0.104707,1.262637 -0.388788,2.494115 -0.63129,2.736617 -1.38919,1.38919 -12.114851,2.12274 -15.27595,1.044752 z"
     id="path40"
     inkscape:connector-curvature="0" />
  <path
     style="fill:#aec0d6;stroke-width:0.41004488"
     d="m 22.878276,45.56794 c -1.418208,-0.451382 -1.865387,-1.056097 -1.873872,-2.534008 -0.0052,-0.914187 0.279767,-1.199719 1.736412,-1.739555 2.699484,-1.000435 6.341313,-1.847437 9.204762,-2.140806 1.433894,-0.146907 2.697529,-0.413452 2.808077,-0.592324 0.110549,-0.178871 -0.20209,-1.09856 -0.694752,-2.043754 C 32.384786,33.305629 31.48567,17.5222 32.926108,16.631961 c 0.205349,-0.126913 0.376188,-0.819552 0.379641,-1.539197 0.0084,-1.746712 0.505512,-2.434242 1.639135,-2.266923 1.421385,0.209791 2.425232,1.908156 2.871758,4.858599 0.221463,1.463328 0.505506,3.271296 0.631206,4.017708 0.1257,0.746411 0.861622,2.057851 1.635383,2.914312 1.383161,1.530994 1.411352,1.636249 1.675107,6.25428 0.147548,2.583393 0.138559,5.562047 -0.01997,6.619232 -0.277906,1.853203 -0.337924,1.922153 -1.673154,1.922153 -1.342848,0 -1.392688,0.05915 -1.641113,1.947713 -0.140914,1.071243 -0.29061,2.206135 -0.332659,2.521984 -0.147995,1.111668 -3.197695,1.789148 -8.687394,1.929873 -2.93182,0.07516 -5.868416,-0.03453 -6.525768,-0.243755 z"
     id="path38"
     inkscape:connector-curvature="0" />
  <path
     style="fill:#abbdd4;stroke-width:0.41004488"
     d="m 23.193681,45.711479 c -2.366472,-0.523162 -2.864333,-3.208795 -0.779541,-4.20511 2.336963,-1.116827 7.029459,-2.112275 11.157065,-2.366816 3.264124,-0.201293 4.120983,-0.37732 3.954067,-0.812295 -0.117201,-0.305422 -0.44523,-0.555313 -0.728953,-0.555313 -0.283723,0 -0.935258,-1.241622 -1.447856,-2.75916 -0.838117,-2.481231 -0.901656,-3.193723 -0.630783,-7.073275 0.165667,-2.372763 0.278684,-4.897759 0.251148,-5.611103 -0.04255,-1.102409 0.07207,-1.26505 0.764024,-1.0841 0.567413,0.148382 1.010627,0.888953 1.462705,2.444045 0.37916,1.304265 0.939613,2.335975 1.349089,2.48347 0.385261,0.138773 1.207905,0.603894 1.828098,1.033602 l 1.127623,0.781286 v 5.686928 5.686928 l -1.402774,-0.22764 c -1.526326,-0.247688 -1.454931,-0.404626 -1.974617,4.340585 -0.170874,1.560243 -2.51271,2.182571 -8.718932,2.317 -2.93182,0.0635 -5.726484,0.02794 -6.210363,-0.07903 z"
     id="path36"
     inkscape:connector-curvature="0" />
  <path
     style="fill:#96adc8;stroke-width:0.41004488"
     d="M 23.253372,45.700947 C 20.831419,45.042921 20.229537,42.700952 22.2181,41.672626 24.314606,40.58848 30.058332,39.457847 34.11956,39.329862 l 3.895426,-0.12276 0.120915,2.517966 0.120914,2.517965 -1.966116,0.712401 c -1.970802,0.7141 -11.208659,1.242348 -13.037327,0.745513 z"
     id="path34"
     inkscape:connector-curvature="0" />
  <path
     style="fill:#859eba;stroke-width:0.41004488"
     d="m 22.779953,45.377977 c -1.441011,-0.626941 -2.100626,-2.012313 -1.374627,-2.887088 1.218686,-1.468428 9.147651,-3.199082 13.739346,-2.998886 l 2.870314,0.125144 0.121648,2.086646 c 0.07878,1.351358 -0.06571,2.231833 -0.410045,2.498666 -2.066536,1.6014 -12.145737,2.394104 -14.946636,1.175518 z"
     id="path32"
     inkscape:connector-curvature="0" />
  <path
     style="fill:#728fb1;stroke-width:0.41004488"
     d="m 23.868439,45.705466 c -2.680262,-0.88301 -3.293412,-2.44818 -1.435868,-3.66529 2.535118,-1.661073 13.871346,-3.297761 15.200563,-2.194608 0.628386,0.521514 0.788955,3.123859 0.245565,3.979876 -0.626505,0.98695 -6.01281,2.149167 -9.80211,2.115028 -1.976196,-0.01781 -3.869863,-0.123557 -4.20815,-0.235006 z"
     id="path30"
     inkscape:connector-curvature="0" />
  <path
     style="fill:#577aa2;stroke-width:0.41004488"
     d="m 23.048349,45.26849 c -0.892642,-0.454547 -1.485177,-1.083294 -1.56748,-1.663274 -0.108287,-0.763089 0.210005,-1.0839 1.752249,-1.766107 2.814245,-1.244875 6.961077,-2.001831 11.010382,-2.009819 l 3.609321,-0.0071 -0.123939,2.148403 -0.123941,2.148403 -2.665291,0.795478 c -3.798258,1.133621 -9.997869,1.3182 -11.891301,0.354036 z"
     id="path28"
     inkscape:connector-curvature="0" />
  <path
     style="fill:#486d98;stroke-width:0.41004488"
     d="m 23.120074,45.127529 c -1.238847,-0.550022 -1.732889,-0.998141 -1.638839,-1.486504 0.349514,-1.814883 5.884422,-3.455169 11.977562,-3.549586 l 4.146144,-0.06425 0.122812,1.675636 c 0.154486,2.107806 -0.263168,2.457911 -3.712782,3.112297 -1.580817,0.299878 -2.520451,0.649489 -2.23435,0.831337 0.271556,0.172603 -1.166944,0.303615 -3.196666,0.291138 -2.711778,-0.01667 -4.160697,-0.231485 -5.463881,-0.810071 z"
     id="path26"
     inkscape:connector-curvature="0" />
  <path
     style="fill:#3a628f;stroke-width:0.41004488"
     d="m 23.961994,45.387764 c -1.958855,-0.711404 -2.820826,-1.674465 -2.184715,-2.440933 1.086733,-1.309434 5.417569,-2.39329 10.424954,-2.609 2.666628,-0.114874 5.014431,-0.04284 5.217342,0.160067 0.202911,0.20291 0.258921,1.046826 0.124467,1.875369 -0.240595,1.482608 -0.288736,1.51651 -3.04304,2.142963 -1.539218,0.350088 -3.684754,0.665513 -4.767858,0.700944 l -1.969279,0.06442 2.050224,0.281206 c 1.836861,0.251941 1.708842,0.282818 -1.230134,0.296703 -1.804198,0.0085 -3.88408,-0.203759 -4.621961,-0.471739 z"
     id="path24"
     inkscape:connector-curvature="0" />
  <path
     style="fill:#335c8c;stroke-width:0.41004488"
     d="m 25.820933,45.682835 c 0.51006,-0.09808 1.24814,-0.09436 1.640179,0.0083 0.392039,0.102631 -0.02528,0.182878 -0.927382,0.178327 -0.902098,-0.0046 -1.222857,-0.08852 -0.712797,-0.186602 z m -3.28514,-0.97297 c -3.142341,-1.830246 3.629852,-4.47765 11.454053,-4.47765 h 3.410073 v 1.612547 c 0,1.856306 -0.704983,2.290462 -3.01543,1.857019 -0.99905,-0.187423 -1.977389,-0.01423 -3.350407,0.593124 -2.119059,0.937361 -7.177328,1.184349 -8.498289,0.41496 z"
     id="path22"
     inkscape:connector-curvature="0" />
  <path
     style="fill:#275487;stroke-width:0.41004488"
     d="m 25.406107,45.701279 c 0.281906,-0.113752 0.743206,-0.113752 1.025112,0 0.281906,0.113752 0.05126,0.206821 -0.512556,0.206821 -0.563812,0 -0.794462,-0.09307 -0.512556,-0.206821 z m -2.996964,-1.139577 c -2.251261,-1.671726 3.136604,-3.864108 10.377771,-4.222831 l 4.613005,-0.228525 v 1.036763 c 0,0.971738 -0.151312,1.047708 -2.412512,1.211268 -1.61246,0.116635 -3.29492,0.608914 -5.073368,1.484441 -2.95292,1.453719 -6.10829,1.755968 -7.504896,0.718884 z"
     id="path20"
     inkscape:connector-curvature="0" />
  <path
     style="fill:#1b4b81;stroke-width:0.41004488"
     d="m 22.710373,44.71867 c -1.583283,-0.634783 -0.919514,-1.724461 1.67834,-2.755249 2.876871,-1.141499 6.993026,-1.664763 10.550937,-1.341284 l 2.665291,0.242324 -2.050224,0.335598 c -2.808158,0.459662 -6.19637,1.688056 -8.06267,2.923115 -1.60981,1.065321 -3.135817,1.255366 -4.781674,0.595496 z"
     id="path18"
     inkscape:connector-curvature="0" />
  <path
     style="fill:#13447b;stroke-width:0.41004488"
     d="m 22.213837,44.110263 c -0.337581,-0.40676 -0.383546,-0.773783 -0.128808,-1.028521 0.928744,-0.928744 5.390152,-2.088697 8.709902,-2.264548 l 3.529652,-0.18697 -2.811865,0.836724 c -1.546526,0.460199 -3.609494,1.385508 -4.584374,2.056243 -1.940083,1.334812 -3.892194,1.577898 -4.714507,0.587072 z"
     id="path16"
     inkscape:connector-curvature="0" />
  <path
     style="fill:#073a74;stroke-width:0.41004488"
     d="m 22.681065,44.367769 c -1.469634,-0.930566 1.272828,-2.482577 5.492845,-3.108504 l 1.640179,-0.243277 -1.372106,0.630023 c -0.754658,0.346513 -2.072853,1.185025 -2.929321,1.86336 -1.678074,1.32906 -1.955476,1.413154 -2.831597,0.858398 z"
     id="path14"
     inkscape:connector-curvature="0" />
</svg>
