<?xml version="1.0" encoding="UTF-8" standalone="no"?>
<!DOCTYPE svg PUBLIC "-//W3C//DTD SVG 1.1//EN" "http://www.w3.org/Graphics/SVG/1.1/DTD/svg11.dtd">
<svg width="100%" height="100%" viewBox="0 0 1096 213" version="1.1" xmlns="http://www.w3.org/2000/svg" xmlns:xlink="http://www.w3.org/1999/xlink" xml:space="preserve" xmlns:serif="http://www.serif.com/" style="fill-rule:evenodd;clip-rule:evenodd;stroke-linejoin:round;stroke-miterlimit:2;">
    <g transform="matrix(1.96649,0,0,1.96649,-41.9535,-66.0546)">
        <g id="txt-white-WebsiteBaker" serif:id="txt white WebsiteBaker">
            <text x="131.5px" y="109.468px" style="font-family:'CenturyGothic', 'Century Gothic', sans-serif;font-size:69.296px;fill:white;">W<tspan x="189.709px 231.98px 277.854px " y="109.468px 109.468px 109.468px ">ebs</tspan>it<tspan x="337.934px 381.59px 418.595px 461.771px 492.395px 536.052px " y="109.468px 109.468px 109.468px 109.468px 109.468px 109.468px ">eBaker</tspan></text>
        </g>
    </g>
    <g id="txt-blue-Open-Source-Content-Management" serif:id="txt blue Open Source Content Management">
        <g transform="matrix(0.476383,0,0,0.476383,21.0855,-46.8773)">
            <path d="M548.7,498.2C548.7,517.8 533.4,533.2 513.6,533.2C493.1,533.2 478.4,517.1 478.4,498.5C478.4,478.6 493.8,463.2 513,463.2C533.3,463.2 548.7,478.3 548.7,498.2ZM485.4,498.5C485.4,514.9 498.4,526.7 513.4,526.7C529,526.7 541.7,514.8 541.7,498.1C541.7,481.2 528.2,469.7 513.4,469.7C498.8,469.7 485.4,481.4 485.4,498.5Z" style="fill:rgb(3,43,79);fill-rule:nonzero;"/>
        </g>
        <g transform="matrix(0.476383,0,0,0.476383,21.0855,-46.8773)">
            <path d="M567.4,491.2C572.3,484.3 579.1,480.9 587,480.9C601.4,480.9 612.5,492.7 612.5,506.7C612.5,520.7 601.6,532.7 587.2,532.7C579.5,532.7 572.8,529.5 567.4,523L567.4,549.4L561.1,549.4L561.1,482.1L567.4,482.1L567.4,491.2ZM566.9,507.1C566.9,519.3 576.4,527 586.5,527C597.5,527 606,517.7 606,507C606,496.4 597.8,487.1 586.5,487.1C575.5,487.1 566.9,495.7 566.9,507.1Z" style="fill:rgb(3,43,79);fill-rule:nonzero;"/>
        </g>
        <g transform="matrix(0.476383,0,0,0.476383,21.0855,-46.8773)">
            <path d="M628.5,507.4C628.8,518.7 636.5,527 647.1,527C657.4,527 662.3,521.2 665.9,515.2L671.2,518C666.2,527.8 658.5,532.8 647.7,532.8C631.4,532.8 622,520.3 622,507.1C622,493.6 631.9,481 647.3,481C661.3,481 672.6,491.1 672.8,507.4L628.5,507.4ZM665.9,501.8C663.3,491.6 656,487 647.4,487C638.6,487 632,491.7 629.1,501.8L665.9,501.8Z" style="fill:rgb(3,43,79);fill-rule:nonzero;"/>
        </g>
        <g transform="matrix(0.476383,0,0,0.476383,21.0855,-46.8773)">
            <path d="M690.9,491C696,484.3 702.1,480.9 709.4,480.9C720.2,480.9 727.7,488.3 727.7,503.8L727.7,531.5L721.4,531.5L721.4,504.7C721.4,493.1 717.8,486.7 708.2,486.7C702.9,486.7 698.5,489 695.2,493.4C691.5,498.2 690.9,503.1 690.9,510.8L690.9,531.5L684.6,531.5L684.6,482.2L690.9,482.2L690.9,491Z" style="fill:rgb(3,43,79);fill-rule:nonzero;"/>
        </g>
        <g transform="matrix(0.476383,0,0,0.476383,21.0855,-46.8773)">
            <path d="M793.6,478.2C790,473.5 786.8,470 781.3,470C775.5,470 772.3,474.1 772.3,478.4C772.3,482 774.4,485.8 778.2,488.7C790.7,498 799.9,504.4 799.9,515.1C799.9,524.5 792,533 781.2,533C772,533 766,527.9 761.1,518.9L766.8,515.5C770.8,522.8 775.6,526.5 780.7,526.5C787.7,526.5 793,521.4 793,515.2C793,507.9 786.1,503.7 771,491.4C767.8,488.9 765.3,483.6 765.3,478.6C765.3,469.4 772.4,463 781.4,463C789.6,463 794.5,467.9 798.8,473.9L793.6,478.2Z" style="fill:rgb(3,43,79);fill-rule:nonzero;"/>
        </g>
        <g transform="matrix(0.476383,0,0,0.476383,21.0855,-46.8773)">
            <path d="M862.2,507C862.2,521 851.3,532.8 836.5,532.8C821.7,532.8 810.8,521 810.8,507C810.8,492.9 821.8,480.9 836.5,480.9C851.3,480.9 862.2,492.9 862.2,507ZM817.3,507.1C817.3,517.9 825.4,526.7 836.5,526.7C847.5,526.7 855.7,517.9 855.7,507.1C855.7,496.1 847,487.1 836.5,487.1C825.9,487.1 817.3,496.1 817.3,507.1Z" style="fill:rgb(3,43,79);fill-rule:nonzero;"/>
        </g>
        <g transform="matrix(0.476383,0,0,0.476383,21.0855,-46.8773)">
            <path d="M909.8,482.2L916.5,482.2L916.5,507.7C916.5,524.3 909,532.7 894.9,532.7C880.8,532.7 873.2,524.3 873.2,507.7L873.2,482.2L879.9,482.2L879.9,506.2C879.9,511.4 879.9,515.7 881.3,518.6C883.6,523.6 888.7,526.5 894.9,526.5C899.4,526.5 903.4,524.8 906,522.1C909.9,517.9 909.8,513.2 909.8,506.1L909.8,482.2Z" style="fill:rgb(3,43,79);fill-rule:nonzero;"/>
        </g>
        <g transform="matrix(0.476383,0,0,0.476383,21.0855,-46.8773)">
            <path d="M934.5,489.4C938.2,484 942.2,481 947.2,481C950.1,481 951.6,481.9 952.9,482.7L949.6,488.1C948.9,487.7 947.7,487.2 946.3,487.2C941.7,487.2 937.5,491.2 935.6,498C934.8,501.2 934.6,506.3 934.6,512.9L934.6,531.6L927.9,531.6L927.9,482.3L934.6,482.3L934.6,489.4L934.5,489.4Z" style="fill:rgb(3,43,79);fill-rule:nonzero;"/>
        </g>
        <g transform="matrix(0.476383,0,0,0.476383,21.0855,-46.8773)">
            <path d="M1005.5,521.6C1000.7,528.9 992.3,532.7 982.4,532.7C966.2,532.7 955.3,521 955.3,507.3C955.3,492.8 966.6,480.9 982.9,480.9C992.4,480.9 1001,484.8 1005.5,492.4L1000.4,495.6C996,489.8 990,487.1 982.6,487.1C970.1,487.1 961.8,496.3 961.8,506.9C961.8,517.7 970,527 982.7,527C989.8,527 995.8,524.1 1000.4,518.4L1005.5,521.6Z" style="fill:rgb(3,43,79);fill-rule:nonzero;"/>
        </g>
        <g transform="matrix(0.476383,0,0,0.476383,21.0855,-46.8773)">
            <path d="M1021.9,507.4C1022.2,518.7 1029.9,527 1040.5,527C1050.8,527 1055.7,521.2 1059.3,515.2L1064.6,518C1059.6,527.8 1051.9,532.8 1041.1,532.8C1024.8,532.8 1015.4,520.3 1015.4,507.1C1015.4,493.6 1025.3,481 1040.7,481C1054.7,481 1066,491.1 1066.2,507.4L1021.9,507.4ZM1059.3,501.8C1056.7,491.6 1049.4,487 1040.8,487C1032,487 1025.4,491.7 1022.5,501.8L1059.3,501.8Z" style="fill:rgb(3,43,79);fill-rule:nonzero;"/>
        </g>
        <g transform="matrix(0.476383,0,0,0.476383,21.0855,-46.8773)">
            <path d="M1161.5,481.2C1155.7,473.5 1147.3,469.7 1137.7,469.7C1121.9,469.7 1108.7,481.4 1108.7,498.4C1108.7,514.9 1121.3,527 1138.1,527C1147.4,527 1155.3,523.2 1161.5,516L1166.8,520C1159.9,528.6 1149.8,533.2 1137.7,533.2C1115.4,533.2 1101.8,517.5 1101.8,497.9C1101.8,478.2 1117,463.3 1137.7,463.3C1149.9,463.3 1160.3,468.1 1166.8,477.3L1161.5,481.2Z" style="fill:rgb(3,43,79);fill-rule:nonzero;"/>
        </g>
        <g transform="matrix(0.476383,0,0,0.476383,21.0855,-46.8773)">
            <path d="M1228.3,507C1228.3,521 1217.4,532.8 1202.6,532.8C1187.8,532.8 1176.9,521 1176.9,507C1176.9,492.9 1187.9,480.9 1202.6,480.9C1217.3,480.9 1228.3,492.9 1228.3,507ZM1183.4,507.1C1183.4,517.9 1191.5,526.7 1202.6,526.7C1213.6,526.7 1221.8,517.9 1221.8,507.1C1221.8,496.1 1213.1,487.1 1202.6,487.1C1192,487.1 1183.4,496.1 1183.4,507.1Z" style="fill:rgb(3,43,79);fill-rule:nonzero;"/>
        </g>
        <g transform="matrix(0.476383,0,0,0.476383,21.0855,-46.8773)">
            <path d="M1246.3,491C1251.4,484.3 1257.5,480.9 1264.8,480.9C1275.6,480.9 1283.1,488.3 1283.1,503.8L1283.1,531.5L1276.8,531.5L1276.8,504.7C1276.8,493.1 1273.2,486.7 1263.6,486.7C1258.3,486.7 1253.9,489 1250.6,493.4C1246.9,498.2 1246.3,503.1 1246.3,510.8L1246.3,531.5L1240,531.5L1240,482.2L1246.3,482.2L1246.3,491Z" style="fill:rgb(3,43,79);fill-rule:nonzero;"/>
        </g>
        <g transform="matrix(0.476383,0,0,0.476383,21.0855,-46.8773)">
            <path d="M1302.2,463.9L1308.5,463.9L1308.5,482.3L1318.6,482.3L1318.6,487.9L1308.5,487.9L1308.5,531.6L1302.2,531.6L1302.2,487.9L1293.5,487.9L1293.5,482.3L1302.2,482.3L1302.2,463.9Z" style="fill:rgb(3,43,79);fill-rule:nonzero;"/>
        </g>
        <g transform="matrix(0.476383,0,0,0.476383,21.0855,-46.8773)">
            <path d="M1332.2,507.4C1332.5,518.7 1340.2,527 1350.8,527C1361.1,527 1366,521.2 1369.6,515.2L1374.9,518C1369.9,527.8 1362.2,532.8 1351.4,532.8C1335.1,532.8 1325.7,520.3 1325.7,507.1C1325.7,493.6 1335.6,481 1351,481C1365,481 1376.3,491.1 1376.5,507.4L1332.2,507.4ZM1369.6,501.8C1367,491.6 1359.7,487 1351.1,487C1342.3,487 1335.7,491.7 1332.8,501.8L1369.6,501.8Z" style="fill:rgb(3,43,79);fill-rule:nonzero;"/>
        </g>
        <g transform="matrix(0.476383,0,0,0.476383,21.0855,-46.8773)">
            <path d="M1394.7,491C1399.8,484.3 1405.9,480.9 1413.2,480.9C1424,480.9 1431.5,488.3 1431.5,503.8L1431.5,531.5L1425.2,531.5L1425.2,504.7C1425.2,493.1 1421.6,486.7 1412,486.7C1406.7,486.7 1402.3,489 1399,493.4C1395.3,498.2 1394.7,503.1 1394.7,510.8L1394.7,531.5L1388.4,531.5L1388.4,482.2L1394.7,482.2L1394.7,491Z" style="fill:rgb(3,43,79);fill-rule:nonzero;"/>
        </g>
        <g transform="matrix(0.476383,0,0,0.476383,21.0855,-46.8773)">
            <path d="M1450.6,463.9L1456.9,463.9L1456.9,482.3L1467,482.3L1467,487.9L1457,487.9L1457,531.6L1450.7,531.6L1450.7,487.9L1442,487.9L1442,482.3L1450.7,482.3L1450.7,463.9L1450.6,463.9Z" style="fill:rgb(3,43,79);fill-rule:nonzero;"/>
        </g>
        <g transform="matrix(0.476383,0,0,0.476383,21.0855,-46.8773)">
            <path d="M1500.2,531.5L1509.7,464.9L1510.8,464.9L1537.9,519.6L1564.7,464.9L1565.8,464.9L1575.3,531.5L1568.8,531.5L1562.3,483.8L1538.7,531.5L1537,531.5L1513.1,483.4L1506.7,531.5L1500.2,531.5Z" style="fill:rgb(3,43,79);fill-rule:nonzero;"/>
        </g>
        <g transform="matrix(0.476383,0,0,0.476383,21.0855,-46.8773)">
            <path d="M1630.3,482.2L1636.5,482.2L1636.5,531.5L1630.3,531.5L1630.3,523.1C1624.9,529.6 1618.1,532.8 1610.4,532.8C1596,532.8 1585.2,520.8 1585.2,506.8C1585.2,492.8 1596.3,481 1610.6,481C1618.6,481 1625.4,484.4 1630.3,491.3L1630.3,482.2ZM1591.7,506.9C1591.7,517.6 1600.1,526.9 1611.1,526.9C1621.2,526.9 1630.8,519.3 1630.8,507C1630.8,495.6 1622.3,487 1611.2,487C1599.9,487.1 1591.7,496.3 1591.7,506.9Z" style="fill:rgb(3,43,79);fill-rule:nonzero;"/>
        </g>
        <g transform="matrix(0.476383,0,0,0.476383,21.0855,-46.8773)">
            <path d="M1657.1,491C1662.2,484.3 1668.3,480.9 1675.6,480.9C1686.4,480.9 1693.9,488.3 1693.9,503.8L1693.9,531.5L1687.6,531.5L1687.6,504.7C1687.6,493.1 1684,486.7 1674.4,486.7C1669.1,486.7 1664.7,489 1661.4,493.4C1657.7,498.2 1657.1,503.1 1657.1,510.8L1657.1,531.5L1650.8,531.5L1650.8,482.2L1657.1,482.2L1657.1,491Z" style="fill:rgb(3,43,79);fill-rule:nonzero;"/>
        </g>
        <g transform="matrix(0.476383,0,0,0.476383,21.0855,-46.8773)">
            <path d="M1750.3,482.2L1756.5,482.2L1756.5,531.5L1750.3,531.5L1750.3,523.1C1744.9,529.6 1738.1,532.8 1730.4,532.8C1716,532.8 1705.2,520.8 1705.2,506.8C1705.2,492.8 1716.3,481 1730.6,481C1738.6,481 1745.4,484.4 1750.3,491.3L1750.3,482.2ZM1711.7,506.9C1711.7,517.6 1720.1,526.9 1731.1,526.9C1741.2,526.9 1750.8,519.3 1750.8,507C1750.8,495.6 1742.3,487 1731.2,487C1719.9,487.1 1711.7,496.3 1711.7,506.9Z" style="fill:rgb(3,43,79);fill-rule:nonzero;"/>
        </g>
        <g transform="matrix(0.476383,0,0,0.476383,21.0855,-46.8773)">
            <path d="M1819.7,521.5C1819.7,529.6 1819.2,536.3 1815.2,541.7C1811,547.4 1803.7,550.7 1794.3,550.7C1780.1,550.7 1773.2,544.9 1768.9,535.4L1775.8,535.4C1779.5,541.9 1785.3,545 1794,545C1802.2,545 1808.2,542 1811.2,536.6C1813.1,533.2 1813.3,529.6 1813.3,525.8L1813.3,522.1C1808.4,528.3 1801.2,531.5 1793.5,531.5C1779.9,531.5 1768.3,521.1 1768.3,506.5C1768.3,491.8 1780.5,480.9 1793.5,480.9C1802.2,480.9 1808.1,484.6 1813.3,490.7L1813.3,482.2L1819.7,482.2L1819.7,521.5ZM1774.8,506.9C1774.8,516.7 1781.8,525.4 1794.8,525.4C1805.6,525.4 1813.6,518 1813.6,506.5C1813.6,494.6 1804.8,487.1 1794.6,487.1C1783.5,487.1 1774.8,495.5 1774.8,506.9Z" style="fill:rgb(3,43,79);fill-rule:nonzero;"/>
        </g>
        <g transform="matrix(0.476383,0,0,0.476383,21.0855,-46.8773)">
            <path d="M1837.5,507.4C1837.8,518.7 1845.5,527 1856.1,527C1866.4,527 1871.3,521.2 1874.9,515.2L1880.2,518C1875.2,527.8 1867.5,532.8 1856.7,532.8C1840.4,532.8 1831,520.3 1831,507.1C1831,493.6 1840.9,481 1856.3,481C1870.3,481 1881.6,491.1 1881.8,507.4L1837.5,507.4ZM1874.9,501.8C1872.3,491.6 1865,487 1856.4,487C1847.6,487 1841,491.7 1838.1,501.8L1874.9,501.8Z" style="fill:rgb(3,43,79);fill-rule:nonzero;"/>
        </g>
        <g transform="matrix(0.476383,0,0,0.476383,21.0855,-46.8773)">
            <path d="M1933.4,531.5L1927.1,531.5L1927.1,506.3C1927.1,502.5 1926.7,499.3 1926.6,497.1C1926.3,491.7 1922,487.1 1915.5,487.1C1911.1,487.1 1906.8,489.2 1904,492.9C1900.5,497.4 1899.8,503.3 1899.8,510.7L1899.8,531.6L1893.5,531.6L1893.5,482.3L1899.8,482.3L1899.8,490.7C1904.2,484.4 1909.6,481 1916.7,481C1924.2,481 1929.6,484.9 1932.3,492.9C1936.7,485 1943.2,481 1950.4,481C1960.6,481 1967.2,488.3 1967.2,502.3L1967.2,531.5L1960.9,531.5L1960.9,504.6C1960.9,501 1960.4,498.1 1960.3,496.2C1960,491.8 1955.8,487 1949.2,487C1943.1,487 1937.7,490.7 1935.2,497C1933.6,501 1933.4,505.4 1933.4,509.9L1933.4,531.5Z" style="fill:rgb(3,43,79);fill-rule:nonzero;"/>
        </g>
        <g transform="matrix(0.476383,0,0,0.476383,21.0855,-46.8773)">
            <path d="M1984.8,507.4C1985.1,518.7 1992.8,527 2003.4,527C2013.7,527 2018.6,521.2 2022.2,515.2L2027.5,518C2022.5,527.8 2014.8,532.8 2004,532.8C1987.7,532.8 1978.3,520.3 1978.3,507.1C1978.3,493.6 1988.2,481 2003.6,481C2017.6,481 2028.9,491.1 2029.1,507.4L1984.8,507.4ZM2022.2,501.8C2019.6,491.6 2012.3,487 2003.7,487C1994.9,487 1988.3,491.7 1985.4,501.8L2022.2,501.8Z" style="fill:rgb(3,43,79);fill-rule:nonzero;"/>
        </g>
        <g transform="matrix(0.476383,0,0,0.476383,21.0855,-46.8773)">
            <path d="M2047.3,491C2052.4,484.3 2058.5,480.9 2065.8,480.9C2076.6,480.9 2084.1,488.3 2084.1,503.8L2084.1,531.5L2077.8,531.5L2077.8,504.7C2077.8,493.1 2074.2,486.7 2064.6,486.7C2059.3,486.7 2054.9,489 2051.6,493.4C2047.9,498.2 2047.3,503.1 2047.3,510.8L2047.3,531.5L2041,531.5L2041,482.2L2047.3,482.2L2047.3,491Z" style="fill:rgb(3,43,79);fill-rule:nonzero;"/>
        </g>
        <g transform="matrix(0.476383,0,0,0.476383,21.0855,-46.8773)">
            <path d="M2103.3,463.9L2109.6,463.9L2109.6,482.3L2119.7,482.3L2119.7,487.9L2109.6,487.9L2109.6,531.6L2103.3,531.6L2103.3,487.9L2094.6,487.9L2094.6,482.3L2103.3,482.3L2103.3,463.9Z" style="fill:rgb(3,43,79);fill-rule:nonzero;"/>
        </g>
    </g>
    <g id="Hat">
        <g transform="matrix(0.512714,0,0,0.512714,-20.0011,-94.8182)">
            <path d="M359.5,526.7L359.5,573.3C338.6,588.8 203.6,611.8 190.8,570.6C177.9,529.4 306.1,520.6 359.5,526.7Z" style="fill:rgb(0,51,102);fill-rule:nonzero;"/>
        </g>
        <g transform="matrix(0.512714,0,0,0.512714,-20.0011,-94.8182)">
            <path d="M399.9,193.9C399.9,193.9 382.3,192.8 304.1,191.9C132,189.9 28.7,268.8 49.6,317.4C78.8,385.2 190.7,571.2 190.7,571.2C195.4,513.2 399.3,533.4 399.3,533.4L399.9,193.9Z" style="fill:url(#_Linear1);fill-rule:nonzero;"/>
        </g>
    </g>
    <defs>
        <linearGradient id="_Linear1" x1="0" y1="0" x2="1" y2="0" gradientUnits="userSpaceOnUse" gradientTransform="matrix(321.067,-185.368,185.368,321.067,124.41,458.164)"><stop offset="0" style="stop-color:rgb(232,241,248);stop-opacity:1"/><stop offset="0" style="stop-color:rgb(232,241,248);stop-opacity:1"/><stop offset="0.21" style="stop-color:rgb(190,215,236);stop-opacity:1"/><stop offset="0.46" style="stop-color:rgb(148,189,223);stop-opacity:1"/><stop offset="0.68" style="stop-color:rgb(117,170,214);stop-opacity:1"/><stop offset="0.87" style="stop-color:rgb(98,158,209);stop-opacity:1"/><stop offset="1" style="stop-color:rgb(91,154,207);stop-opacity:1"/></linearGradient>
    </defs>
</svg>
